<svg width="900" height="162" viewBox="0 0 900 162" fill="none" xmlns="http://www.w3.org/2000/svg">
<path d="M0 128.382C0.286353 131.627 1.1454 134.968 2.48171 138.309C4.19984 142.604 6.96794 146.518 10.5951 149.954C14.3177 153.39 19.0902 156.254 24.9128 158.449C30.7354 160.645 37.9896 161.79 46.2938 161.79C54.0253 161.79 61.2796 161.026 67.6749 159.499C73.9747 158.067 79.5108 155.681 83.997 152.627C88.3877 149.668 91.9195 145.85 94.4013 141.268C96.8829 136.782 98.1238 131.246 98.1238 125.041C98.1238 119.41 97.0738 114.732 94.974 111.201C92.8739 107.574 89.9151 104.615 86.1924 102.419C82.3744 100.033 77.7927 98.2195 72.7338 96.8831C67.4839 95.4514 61.8523 94.306 56.0299 93.2559C52.1164 92.7787 48.7756 92.206 46.0074 91.7288C43.0485 91.156 40.5667 90.5833 38.6576 89.7244C36.367 88.8652 34.7442 87.7198 33.5034 86.3836C32.167 84.8562 31.4989 82.9473 31.4989 80.752C31.4034 78.4611 32.167 74.9294 36.2715 71.7794C39.3258 69.4887 43.7165 68.3433 49.5391 68.3433C54.598 68.3433 58.7025 69.5842 61.6615 72.0658C63.8569 73.8794 65.384 76.0748 66.1477 78.5566L94.4967 78.6519C94.2103 74.7384 93.2558 71.0159 91.7285 67.6751C89.8196 63.4752 87.0515 59.8481 83.5198 56.7936C79.8926 53.7391 75.4064 51.2575 70.1567 49.6349C64.8113 47.9167 58.7025 47.2485 52.0209 47.2485C43.6212 47.2485 36.2715 47.8212 30.1626 49.5394C24.1491 51.162 19.0902 53.4529 15.2722 56.4119C11.4541 59.2754 8.59059 62.807 6.77702 66.9114C4.868 71.1114 3.9135 75.9793 3.9135 81.2292C3.9135 85.2382 4.39075 88.7697 5.44071 91.7288C6.39522 94.5923 7.73154 97.1696 9.35421 99.174C10.9769 101.274 12.8859 102.992 15.0813 104.424C17.2767 105.856 19.6629 107.096 22.0492 108.051C24.531 109.006 26.9172 109.864 29.399 110.437C31.9761 111.01 34.3624 111.583 36.5578 111.964C41.5214 113.11 45.8166 113.969 49.4436 114.732C53.2618 115.496 56.6026 116.355 59.2752 117.214C62.2342 118.264 64.4296 119.41 66.0522 120.746C68.0566 122.464 69.1067 124.755 69.1067 127.428C69.1067 131.532 67.1022 134.873 63.3796 137.164C60.0389 139.168 54.9798 140.122 48.012 140.122C42.4758 140.122 37.7987 138.882 34.0761 136.495C30.9261 134.396 28.8263 131.818 27.9671 128.668L0 128.382Z" fill="#000F39"/>
<path d="M259.916 158.354H287.787V100.128C287.787 91.8242 286.737 84.1882 284.827 77.6975C282.92 71.2069 279.96 65.6706 276.142 61.2798C272.325 56.8891 267.551 53.4529 262.015 51.0665C256.383 48.6804 249.703 47.2485 242.257 47.2485C237.962 47.2485 233.952 47.8212 230.134 48.5849C226.317 49.3484 222.784 50.3985 219.635 51.6393C216.484 52.8801 213.431 54.4073 210.759 56.1254C208.085 57.8436 205.603 59.6572 203.504 61.5663L201.213 63.5707L199.209 61.2798C195.39 56.8891 190.618 53.4529 185.177 51.0665C179.641 48.6804 173.341 47.2485 166.278 47.2485C159.596 47.2485 153.487 48.4894 148.047 50.5893C142.51 52.7847 137.738 55.3619 133.729 58.3208L130.102 60.9936L127.62 50.8758H105.762V158.449H133.538V102.038C133.538 97.2649 134.111 92.9696 135.352 89.1516C136.593 85.2382 138.501 81.8974 140.888 79.0338C143.37 76.2658 146.328 74.0702 149.765 72.6385C153.105 71.2067 156.924 70.4432 161.028 70.4432C168.187 70.4432 173.723 73.1158 177.445 78.3656C180.978 83.4245 182.695 90.7743 182.695 100.988V158.354H210.663V100.319C210.759 95.8332 211.426 91.7287 212.762 88.1017C214.099 84.4745 216.009 81.2292 218.298 78.6519C220.685 75.9793 223.644 73.9749 226.985 72.5431C230.325 71.1114 234.047 70.4432 238.058 70.4432C245.215 70.4432 250.751 73.1158 254.475 78.3656C258.006 83.4245 259.725 90.7743 259.725 100.988V158.354H259.916Z" fill="#000F39"/>
<path d="M392.49 50.7803L390.678 62.3298L386.668 59.0845C382.755 55.9347 377.887 53.1666 372.255 50.8758C366.624 48.5849 360.228 47.2485 353.164 47.2485C344.288 47.2485 336.174 48.9667 329.112 51.9257C322.048 54.8847 315.939 59.0845 310.976 64.2389C306.013 69.3932 302.193 75.5021 299.426 82.4701C296.753 89.4379 295.322 96.9786 295.322 104.806C295.322 112.728 296.657 120.269 299.426 127.141C302.098 134.014 306.013 140.122 310.976 145.277C315.939 150.431 322.048 154.536 329.207 157.495C336.27 160.454 344.288 161.79 353.164 161.79C360.133 161.79 366.624 160.835 372.16 158.64C377.791 156.349 382.659 153.581 386.668 150.431L390.582 147.281L392.586 158.354H415.781V50.7803H392.49ZM387.05 118.646C385.333 122.846 382.946 126.569 379.987 129.527C376.932 132.582 373.401 134.873 369.393 136.495C365.382 138.118 360.992 138.977 356.506 138.977C352.02 138.977 347.628 138.118 343.62 136.495C339.611 134.873 335.983 132.486 333.025 129.527C330.065 126.569 327.584 122.846 325.866 118.646C324.149 114.446 323.194 109.674 323.194 104.615C323.194 99.5557 324.053 94.8787 325.77 90.7743C327.489 86.5744 329.876 82.9473 332.834 79.9883C335.792 76.9338 339.325 74.6429 343.429 73.0203C347.437 71.3976 351.829 70.5387 356.411 70.5387C360.897 70.5387 365.287 71.3976 369.297 73.0203C373.306 74.6429 376.932 77.0293 379.892 79.9883C382.85 82.9473 385.333 86.5744 387.05 90.7743C388.768 94.974 389.723 99.6512 389.723 104.71C389.628 109.674 388.673 114.351 387.05 118.646Z" fill="#000F39"/>
<path d="M820.872 0C813.33 0 805.885 0.954521 798.918 2.76808C791.95 4.58166 785.268 7.25432 779.254 10.6906C773.145 14.1268 767.609 18.2312 762.646 23.0037C757.682 27.7763 753.292 33.1215 749.759 39.0396C746.228 44.862 743.366 51.2572 741.456 57.9388C739.546 64.6205 738.496 71.7793 738.496 79.0336C738.496 86.3833 739.451 93.4466 741.456 100.128C743.366 106.81 746.228 113.205 749.759 119.028C753.292 124.85 757.682 130.291 762.646 135.063C767.609 139.836 773.241 144.036 779.254 147.377C785.363 150.717 791.95 153.39 798.918 155.299C805.885 157.208 813.33 158.163 820.872 158.163C826.217 158.163 831.753 157.59 837.384 156.54C842.921 155.395 848.457 153.772 853.706 151.576C858.956 149.381 864.11 146.613 868.978 143.368C873.846 140.122 878.333 136.209 882.342 131.818C886.35 127.427 889.883 122.464 892.841 117.023C895.801 111.582 897.996 105.569 899.428 99.0782L900.001 96.5966H897.518H862.296H860.866L860.388 97.933C858.956 102.324 856.856 106.142 854.184 109.482C851.51 112.823 848.361 115.591 844.83 117.882C841.297 120.173 837.48 121.891 833.376 123.037C829.27 124.182 825.071 124.755 820.776 124.755C814.763 124.755 808.94 123.609 803.595 121.318C798.25 119.028 793.477 115.782 789.467 111.773C785.459 107.764 782.31 102.896 780.018 97.2648C777.726 91.7287 776.582 85.6197 776.582 79.1291C776.582 72.6383 777.726 66.5294 780.018 60.9933C782.31 55.4572 785.554 50.5891 789.467 46.4848C793.477 42.4758 798.154 39.2305 803.595 36.9397C808.94 34.6488 814.763 33.5034 820.776 33.5034C825.071 33.5034 829.27 34.0761 833.376 35.2216C837.48 36.367 841.297 38.0851 844.83 40.3759C848.361 42.6668 851.51 45.4348 854.184 48.8711C856.856 52.2119 859.052 56.1254 860.484 60.4206L860.961 61.757H862.392L897.327 61.8525H899.81L899.332 59.4661C897.9 52.7846 895.706 46.4848 892.841 40.9485C889.883 35.4123 886.35 30.3534 882.342 26.0582C878.333 21.6675 873.75 17.8493 868.883 14.5086C864.015 11.2632 858.765 8.49518 853.42 6.39525C848.075 4.29532 842.539 2.67266 837.003 1.62269C831.657 0.572725 826.121 0 820.872 0Z" fill="#000F39"/>
<path d="M627.112 158.356L692.686 63.0007V158.356H730.007V5.15723H691.35L582.346 158.356H627.112Z" fill="#000F39"/>
<path d="M488.804 48.1087C481.742 48.1087 475.251 48.4904 469.715 50.7813C463.988 53.0721 459.216 56.0311 455.301 59.1809L450.051 63.5718L446.425 50.6858H444.993H426.19H424.662V158.259H439.265H444.993H452.343V114.829C452.725 90.7753 467.424 71.3033 485.56 71.3033H497.682V48.0132H488.804V48.1087Z" fill="#000F39"/>
<path d="M563.832 136.686C561.351 136.686 558.964 136.399 556.768 135.826C554.288 135.158 552.187 134.013 550.375 132.295C548.656 130.672 547.224 128.381 546.269 125.709C545.316 123.036 544.838 119.886 544.838 115.973V71.4923H574.331V48.1067H544.838V18.7079L525.652 18.8987L515.535 44.3842L505.035 48.1067V71.4923H517.062V116.259C517.062 125.327 518.206 132.772 520.498 138.213C522.694 143.558 525.747 147.758 529.565 150.621C533.384 153.58 537.966 155.585 543.12 156.635C548.56 157.685 554.383 158.257 560.492 158.257H579.486L579.677 136.59H563.832V136.686Z" fill="#000F39"/>
</svg>
